<svg width="32" height="32" viewBox="0 0 32 32" fill="none" xmlns="http://www.w3.org/2000/svg">
<path d="M6.66644 16.0003C7.78063 15.1629 9.16575 14.6667 10.6667 14.6667C14.348 14.6667 17.3322 17.6514 17.3322 21.3333C17.3322 22.8341 16.8364 24.2191 15.9996 25.3333M6.66644 16.0003C5.04805 17.2166 4.00127 19.1527 4.00127 21.3333C4.00127 22.022 4.10568 22.6864 4.29954 23.3113C4.66319 24.4836 4.40066 25.7904 4.16845 27.0224C4.08076 27.4877 4.50066 27.8664 4.95732 27.7414C6.08741 27.432 7.21249 27.168 8.36656 27.5924C9.08352 27.8561 9.85833 28 10.6667 28C12.8474 28 14.7835 26.9526 15.9996 25.3333M6.66644 16.0003C6.66644 9.75317 10.5001 4 17.3322 4C23.2228 4 27.998 8.77563 27.998 14.6667C27.998 15.9298 27.7784 17.1416 27.3754 18.2661C26.7417 20.0346 27.4246 22.4023 27.8252 24.3569C27.9203 24.8207 27.4993 25.1994 27.0474 25.0584C25.2978 24.5123 23.2443 23.744 21.6004 24.437C19.8214 25.1869 17.9521 25.3333 15.9996 25.3333" stroke="#0A7273" stroke-width="1.5" stroke-linecap="round" stroke-linejoin="round"/>
</svg>
