<svg width="32" height="32" viewBox="0 0 32 32" fill="none" xmlns="http://www.w3.org/2000/svg">
<path d="M21.3333 16.9999V16.3333" stroke="#0A7273" stroke-width="1.5" stroke-linecap="round" stroke-linejoin="round"/>
<path d="M16 16.9999V16.3333" stroke="#0A7273" stroke-width="1.5" stroke-linecap="round" stroke-linejoin="round"/>
<path d="M10.6667 16.9999V16.3333" stroke="#0A7273" stroke-width="1.5" stroke-linecap="round" stroke-linejoin="round"/>
<path d="M16 28C22.6274 28 28 22.6274 28 16C28 9.37258 22.6274 4 16 4C9.37258 4 4 9.37258 4 16C4 17.9196 4.45074 19.734 5.25215 21.343C5.85714 22.5576 5.0177 24.1964 4.69781 25.392C4.38755 26.5516 5.44842 27.6125 6.60802 27.3022C7.80356 26.9823 9.44241 26.1429 10.657 26.7478C12.266 27.5493 14.0804 28 16 28Z" stroke="#0A7273" stroke-width="1.5" stroke-linecap="round" stroke-linejoin="round"/>
</svg>
