<svg width="32" height="32" viewBox="0 0 32 32" fill="none" xmlns="http://www.w3.org/2000/svg">
<path d="M22.6667 26C22.6667 23.7909 19.6819 22 16 22C12.3181 22 9.33333 23.7909 9.33333 26M28 22.0005C28 20.3602 26.3545 18.9506 24 18.3333M4 22.0005C4 20.3602 5.64546 18.9506 8 18.3333M24 12.9815C24.8183 12.249 25.3333 11.1847 25.3333 10C25.3333 7.79086 23.5425 6 21.3333 6C20.3089 6 19.3743 6.38514 18.6667 7.01852M8 12.9815C7.18167 12.249 6.66667 11.1847 6.66667 10C6.66667 7.79086 8.45753 6 10.6667 6C11.6911 6 12.6257 6.38514 13.3333 7.01852M16 18C13.7909 18 12 16.2091 12 14C12 11.7909 13.7909 10 16 10C18.2091 10 20 11.7909 20 14C20 16.2091 18.2091 18 16 18Z" stroke="#0A7273" stroke-width="1.5" stroke-linecap="round" stroke-linejoin="round"/>
</svg>
